<?xml version="1.0" encoding="iso-8859-1"?>
<!-- Generator: Adobe Illustrator 19.0.0, SVG Export Plug-In . SVG Version: 6.00 Build 0)  -->
<svg version="1.1" id="Layer_1" xmlns="http://www.w3.org/2000/svg" xmlns:xlink="http://www.w3.org/1999/xlink" x="0px" y="0px"
	 viewBox="0 0 512.001 512.001" style="enable-background:new 0 0 512.001 512.001;" xml:space="preserve">
<path style="fill:#0071BC;" d="M348.069,413.464c-30.872,16.994-66.346,26.661-104.077,26.661
	c-119.375,0-216.147-96.772-216.147-216.147S124.618,7.831,243.992,7.831s216.147,96.772,216.147,216.147
	c0,5.387-0.197,10.728-0.585,16.015"/>
<path style="fill:#29ABE2;" d="M171.943,223.978c0-94.104,60.157-174.121,144.099-203.799c-22.541-7.97-46.779-12.348-72.05-12.348
	c-119.375,0-216.147,96.772-216.147,216.147s96.772,216.147,216.147,216.147c25.25,0,49.447-4.416,71.973-12.373
	C232.064,398.052,171.943,318.055,171.943,223.978z"/>
<g>
	<path style="fill:#8C6239;" d="M244.035,440.126c0,0,76.98-2.626,96.044-24.181c0,0-83.093-37.061-80.075-112.24h-31.94v48.031
		h-24.016v48.362L244.035,440.126"/>
	<path style="fill:#8C6239;" d="M212.402,7.831V79.88l22.971,8.006v40.028l24.016,24.017v40.052h56.652l31.54-40.039l-24.498-16.023
		V94.874h25.06V31.848C348.142,31.848,295.935,4.303,212.402,7.831z"/>
</g>
<path style="fill:#39B54A;" d="M484.156,304.033c0,61.899-50.178,112.076-112.076,112.076s-112.076-50.178-112.076-112.076
	c0-61.897,112.076-184.125,112.076-184.125S484.156,242.135,484.156,304.033z"/>
<path style="fill:#A67C52;" d="M83.753,368.089l15.881-16.024v-16.011l40.722-40.028v-48.032l-22.971-16.011v-56.71h-25.06v-55.34
	H51.862C51.862,119.934-20.175,268.908,83.753,368.089"/>
<path style="fill:#006837;" d="M372.08,119.908c0,0-8.151,8.9-20.013,23.043c32.223,38.417,92.063,115.838,92.063,161.082
	c0,55.055-39.73,100.742-92.063,110.193c6.504,1.175,13.171,1.884,20.013,1.884c61.899,0,112.076-50.178,112.076-112.076
	C484.156,242.135,372.08,119.908,372.08,119.908z"/>
<g>
	<rect x="117.384" y="79.212" style="fill:#FFFFFF;" width="63.693" height="15.662"/>
	<rect x="181.078" y="94.872" style="fill:#FFFFFF;" width="14.618" height="15.662"/>
	<rect x="124.693" y="360.087" style="fill:#FFFFFF;" width="38.634" height="15.662"/>
	<rect x="163.327" y="343.381" style="fill:#FFFFFF;" width="17.751" height="15.662"/>
	<rect x="181.078" y="255.672" style="fill:#FFFFFF;" width="46.987" height="15.662"/>
	<rect x="221.8" y="225.391" style="fill:#FFFFFF;" width="62.649" height="15.662"/>
	<rect x="28.631" y="233.744" style="fill:#FFFFFF;" width="45.943" height="15.662"/>
	<rect x="67.265" y="264.025" style="fill:#FFFFFF;" width="50.119" height="15.662"/>
	<rect x="163.327" y="166.919" style="fill:#FFFFFF;" width="17.751" height="15.662"/>
	<rect x="403.483" y="111.578" style="fill:#FFFFFF;" width="32.369" height="15.662"/>
	<rect x="259.389" y="399.765" style="fill:#FFFFFF;" width="16.706" height="15.662"/>
	<rect x="235.374" y="384.103" style="fill:#FFFFFF;" width="24.016" height="15.662"/>
</g>
<path d="M491.987,304.033c0-19.494-10.1-44.146-24.286-69.165c0.173-3.625,0.269-7.268,0.269-10.889
	c0-59.827-23.298-116.072-65.601-158.376C360.065,23.298,303.819,0,243.992,0S127.92,23.298,85.616,65.602
	s-65.602,98.549-65.602,158.376s23.298,116.072,65.602,158.376s98.549,65.602,158.376,65.602c36.705,0,72.998-9.074,105.187-26.22
	c4.923,0.956,9.953,1.609,15.069,1.941v32.633h-40.201v15.662h40.201v12.182c0,15.354,12.491,27.845,27.844,27.845
	c15.354,0,27.845-12.491,27.845-27.845c0-15.353-12.491-27.844-27.845-27.844h-12.182v-32.633
	C442.391,419.629,491.987,367.518,491.987,304.033z M451.763,208.971c-31.749-48.113-71.155-91.35-73.91-94.356l-5.772-6.294
	l-5.772,6.294c-1.332,1.453-11.239,12.32-24.704,28.591l-11.211-10.65v-29.328h26.104V48.733
	C410.128,83.286,446.955,141.768,451.763,208.971z M220.756,16.965c7.632-0.851,15.381-1.303,23.237-1.303
	c34.941,0,67.893,8.658,96.841,23.925v47.978h-26.104v51.716l16.961,16.111c-6.866,8.588-14.241,18.127-21.636,28.235h-42.312
	v-35.04l-25.06-24.017V82.408l-21.927-8.006L220.756,16.965L220.756,16.965z M91.28,348.824l-7.795,7.801
	c-29.849-36.055-47.81-82.292-47.81-132.646c0-34.898,8.638-67.811,23.87-96.736h23.381v55.34h26.104v53.591l24.016,16.011v40.501
	L91.28,332.712V348.824z M93.939,368.322l13.004-13.015v-15.911l41.766-40.027v-55.565l-24.016-16.011v-60.872H98.59v-55.34H68.671
	c30.383-47.227,79.317-81.43,136.422-92.261v66.039l21.927,8.006v37.891l25.06,24.017v44.018h46.848
	c-22.605,32.81-42.949,69.106-46.266,97.106h-31.906v46.987h-25.06v59.948l27.828,27.957
	C172.831,426.321,127.414,403.109,93.939,368.322z M246.583,432.253l-35.225-35.388v-37.82h25.06v-46.987h16.029
	c3.101,46.687,33.039,86.145,74.491,103.053C301.693,426.049,274.291,431.908,246.583,432.253z M392.093,471.973
	c6.718,0,12.183,5.465,12.183,12.182c0,6.718-5.465,12.183-12.183,12.183s-12.182-5.465-12.182-12.183v-12.182H392.093z
	 M364.249,239.989v101.175l-18.653-18.653l-11.075,11.074l29.729,29.729v44.67c-53.837-4.018-96.414-49.106-96.414-103.952
	c0-23.616,18.826-61.838,54.444-110.537c19.988-27.329,40.191-50.915,49.801-61.832c9.61,10.917,29.813,34.502,49.801,61.832
	c11.867,16.225,21.858,31.28,29.922,45.026c-0.021,0.3-0.035,0.601-0.057,0.9l0.614,0.045c15.779,27.08,23.965,48.999,23.965,64.566
	c0,54.846-42.577,99.934-96.414,103.952v-20.653l21.724-21.723l-11.075-11.074l-10.647,10.647v-49.9l29.729-29.729l-11.075-11.074
	l-18.653,18.653v-53.143L364.249,239.989L364.249,239.989z"/>
<g>
</g>
<g>
</g>
<g>
</g>
<g>
</g>
<g>
</g>
<g>
</g>
<g>
</g>
<g>
</g>
<g>
</g>
<g>
</g>
<g>
</g>
<g>
</g>
<g>
</g>
<g>
</g>
<g>
</g>
</svg>
