<svg width="45" height="45" viewBox="0 0 45 45" fill="none" xmlns="http://www.w3.org/2000/svg">
<g clip-path="url(#clip0)">
<path d="M29.625 40.77C27.7724 42.9732 25.041 44.2452 22.1625 44.2452C19.2839 44.2452 16.5525 42.9732 14.7 40.77C19.6546 41.4072 24.6704 41.4072 29.625 40.77Z" fill="#FF9801"/>
<path d="M27.09 41.0325C25.513 42.7913 23.3467 43.9118 21 44.1825C24.2677 44.5814 27.5148 43.2967 29.625 40.77C28.7775 40.8825 27.9375 40.965 27.09 41.0325V41.0325Z" fill="#F57C00"/>
<path d="M40.875 34.5C40.875 37.89 35.895 39.9225 29.625 40.77C24.6704 41.4072 19.6546 41.4072 14.7 40.77C8.355 39.9225 3.375 37.89 3.375 34.5C3.375 31.11 8.355 29.0775 14.6625 28.23C13.9562 29.0707 13.3959 30.0239 13.005 31.05C2.1 33.0675 7.6575 36.9225 18.855 37.4175C25.14 37.785 31.605 36.8325 31.605 36.6675C38.145 35.3625 39.6375 32.775 31.8525 31.1625V28.605C37.0575 29.6025 40.875 31.5 40.875 34.5Z" fill="#FFEB3A"/>
<path d="M31.875 28.605V29.1225C35.8725 30.2175 38.625 31.98 38.625 34.5C38.625 37.89 33.645 39.9225 27.375 40.77C25.2611 41.0535 23.1325 41.2138 21 41.25C23.8831 41.312 26.7666 41.1515 29.625 40.77C35.9325 39.9225 40.875 37.89 40.875 34.5C40.875 31.5 37.0575 29.6025 31.875 28.605Z" fill="#FDD834"/>
<path d="M30.075 13.02C29.8793 13.3849 29.6508 13.7313 29.3925 14.055C27.1119 16.9736 23.1727 18.0265 19.74 16.635L19.6425 16.59C16.7381 15.3582 14.7905 12.578 14.625 9.4275C14.6175 9.28509 14.6175 9.1424 14.625 9C14.6346 5.25196 17.1695 1.98135 20.7966 1.03713C24.4238 0.0929051 28.2316 1.71237 30.0675 4.98C27.075 3.105 22.41 3.3825 19.875 5.775C18.9234 6.57587 18.374 7.75618 18.374 9C18.374 10.2438 18.9234 11.4241 19.875 12.225C22.35 14.58 27 14.9325 30.075 13.02Z" fill="#F5F5F5"/>
<path d="M27.075 3.885C28.1375 4.04865 29.157 4.42079 30.075 4.98C28.6317 2.35693 25.8689 0.733786 22.875 0.749998C22.511 0.750802 22.1475 0.778376 21.7875 0.832498C23.8807 1.12138 25.7782 2.21678 27.075 3.885V3.885Z" fill="#CFD8DC"/>
<path d="M27.09 14.115C26.1862 15.2621 24.9889 16.1432 23.625 16.665C23.0067 16.9067 22.3624 17.0754 21.705 17.1675C23.1151 17.3626 24.5516 17.1895 25.875 16.665C27.2565 16.1306 28.4653 15.2279 29.37 14.055C29.6283 13.7313 29.8567 13.3849 30.0525 13.02C29.1447 13.5724 28.1388 13.9442 27.09 14.115V14.115Z" fill="#CFD8DC"/>
<path d="M30.45 12.27C30.3375 12.525 30.2175 12.7725 30.0825 13.02C27 14.9325 22.35 14.58 19.875 12.225C18.9233 11.4241 18.374 10.2438 18.374 9C18.374 7.75618 18.9233 6.57587 19.875 5.775C22.41 3.3825 27.075 3.105 30.0675 4.98C31.3378 7.21362 31.4796 9.9157 30.45 12.27V12.27Z" fill="#02A9F4"/>
<path d="M30.0675 4.98C28.3518 3.97104 26.3482 3.5645 24.375 3.825C25.5937 3.95103 26.7694 4.34548 27.8175 4.98C29.0878 7.21362 29.2295 9.9157 28.2 12.27C28.0875 12.525 27.9675 12.7725 27.8325 13.02C26.7783 13.6545 25.5983 14.0513 24.375 14.1825C26.3513 14.4367 28.356 14.0278 30.075 13.02C30.21 12.78 30.33 12.5325 30.4425 12.27C31.4743 9.91687 31.3353 7.21482 30.0675 4.98V4.98Z" fill="#0377BC"/>
<path d="M26.235 23.7525C25.8267 24.3815 25.1249 24.7579 24.375 24.75C23.6775 24.75 23.715 24.6825 18.84 22.2525C16.1901 20.9266 14.7148 18.0276 15.2025 15.105C15.42 13.77 15.4125 13.56 15.705 13.0725C16.5967 14.6447 17.9801 15.8805 19.6425 16.59C19.7635 17.2976 20.2148 17.905 20.8575 18.225L25.3575 20.475C25.7353 20.6636 26.0524 20.9547 26.2725 21.315C26.7262 22.0652 26.7028 23.0107 26.2125 23.7375L26.235 23.7525Z" fill="#CFD8DC"/>
<path d="M31.1925 21.8775C30.4425 24.8025 27.5475 24.3075 26.835 22.74C26.7537 22.5659 26.6957 22.3818 26.6625 22.1925C26.46 20.985 27.465 20.13 25.9125 16.6875C27.2941 16.1531 28.5028 15.2505 29.4075 14.0775C30.45 14.97 30.9075 16.815 31.1475 18.1125C31.4404 19.3488 31.4557 20.6346 31.1925 21.8775V21.8775Z" fill="#CFD8DC"/>
<path d="M26.625 25.125V32.55C26.6422 33.81 25.7762 34.9105 24.5475 35.19C23.7727 35.3581 22.9634 35.166 22.3468 34.6675C21.7303 34.169 21.3729 33.4179 21.375 32.625V27.75C21.3853 27.397 21.1479 27.0846 20.805 27C20.805 27 17.34 26.145 17.1675 26.085C16.1128 25.7183 15.3977 24.7339 15.375 23.6175V18.0975C15.9002 19.9051 17.1562 21.4112 18.84 22.2525C23.715 24.6825 23.6775 24.75 24.375 24.75C25.1249 24.7579 25.8267 24.3816 26.235 23.7525C26.4889 24.1654 26.6238 24.6403 26.625 25.125Z" fill="#F5F5F5"/>
<path d="M26.6625 22.1925H26.625C26.5861 21.8838 26.4813 21.5871 26.3175 21.3225C26.0974 20.9622 25.7803 20.6711 25.4025 20.4825L20.9025 18.2325C20.2599 17.9125 19.8085 17.3051 19.6875 16.5975L19.785 16.6425C21.7591 17.445 23.9684 17.445 25.9425 16.6425C27.465 20.13 26.46 21 26.6625 22.1925V22.1925Z" fill="#F5F5F5"/>
<path d="M31.875 23.625V31.17C31.867 31.5448 31.7774 31.9134 31.6125 32.25C31.0807 33.3481 29.8625 33.9351 28.6723 33.6666C27.4822 33.3982 26.6338 32.3451 26.625 31.125V25.125C26.6238 24.6403 26.4889 24.1654 26.235 23.7525C26.5576 23.3034 26.6971 22.7483 26.625 22.2H26.685C26.7181 22.3893 26.7761 22.5734 26.8575 22.7475C27.57 24.315 30.48 24.81 31.215 21.885C31.6413 22.3642 31.8763 22.9836 31.875 23.625V23.625Z" fill="#F5F5F5"/>
<path d="M31.2075 21.8775C31.0557 22.7675 30.4584 23.5177 29.625 23.865V31.17C29.617 31.5448 29.5274 31.9133 29.3625 32.25C29.1003 32.7894 28.6645 33.2252 28.125 33.4875C28.4747 33.6606 28.8598 33.7505 29.25 33.75C30.2595 33.7428 31.1766 33.1606 31.6125 32.25C31.7774 31.9133 31.867 31.5448 31.875 31.17V23.625C31.8761 22.98 31.6383 22.3575 31.2075 21.8775Z" fill="#CFD8DC"/>
<path d="M17.1675 26.115C16.8376 26.2979 16.5239 26.5086 16.23 26.745L14.325 25.995C13.5809 25.6998 13.0497 25.0315 12.93 24.24L11.1675 12.4575C10.9994 11.3401 11.6862 10.2714 12.7725 9.96001L14.625 9.42751C14.6895 10.7092 15.0543 11.9577 15.69 13.0725C15.3975 13.56 15.405 13.77 15.1875 15.105C15.0167 16.1051 15.0757 17.131 15.36 18.105V23.625C15.3756 24.7536 16.0992 25.7505 17.1675 26.115Z" fill="#CFD8DC"/>
<path d="M31.6275 36.675C31.6275 36.8625 24.975 37.7775 18.8775 37.425C16.7832 37.3433 14.6989 37.0925 12.645 36.675C11.7914 32.9415 13.2026 29.054 16.2525 26.7375C16.5464 26.5011 16.8601 26.2904 17.19 26.1075C17.3625 26.1675 20.8125 27.0225 20.8275 27.0225C21.1531 27.1138 21.3774 27.4118 21.375 27.75V32.625C21.3729 33.4179 21.7302 34.169 22.3468 34.6675C22.9634 35.166 23.7726 35.3581 24.5475 35.19C25.7762 34.9105 26.6422 33.81 26.625 32.55V31.125C26.6338 32.345 27.4821 33.3981 28.6723 33.6666C29.8625 33.9351 31.0807 33.3481 31.6125 32.25C31.9565 33.7044 31.9617 35.2183 31.6275 36.675V36.675Z" fill="#FF9801"/>
<path d="M4.875 15.75C4.46079 15.75 4.125 16.0858 4.125 16.5V17.25H3.375C2.96079 17.25 2.625 17.5858 2.625 18C2.625 18.4142 2.96079 18.75 3.375 18.75H4.125V19.5C4.125 19.9142 4.46079 20.25 4.875 20.25C5.28921 20.25 5.625 19.9142 5.625 19.5V18.75H6.375C6.78921 18.75 7.125 18.4142 7.125 18C7.125 17.5858 6.78921 17.25 6.375 17.25H5.625V16.5C5.625 16.0858 5.28921 15.75 4.875 15.75Z" fill="black"/>
<path d="M41.625 3.75H40.875V3C40.875 2.58578 40.5392 2.25 40.125 2.25C39.7108 2.25 39.375 2.58578 39.375 3V3.75H38.625C38.2108 3.75 37.875 4.08578 37.875 4.5C37.875 4.91421 38.2108 5.25 38.625 5.25H39.375V6C39.375 6.41421 39.7108 6.75 40.125 6.75C40.5392 6.75 40.875 6.41421 40.875 6V5.25H41.625C42.0392 5.25 42.375 4.91421 42.375 4.5C42.375 4.08578 42.0392 3.75 41.625 3.75Z" fill="black"/>
<path d="M32.625 27.9975V23.625C32.6163 22.953 32.4046 22.2994 32.0175 21.75C32.4 19.59 31.665 15.6675 30.36 14.0325C32.4776 10.8382 32.3401 6.65339 30.0174 3.60504C27.6947 0.556694 23.6964 -0.68642 20.0547 0.507559C16.413 1.70154 13.9269 5.07068 13.86 8.9025L12.5475 9.2775C11.0972 9.69062 10.1789 11.1161 10.4025 12.6075L12.165 24.375C12.3246 25.4303 13.0329 26.3214 14.025 26.715L14.775 27.0225C14.5875 27.2025 14.415 27.3825 14.25 27.5625C6.765 28.5825 2.625 31.0575 2.625 34.5C2.625 37.9425 6.7725 40.4175 14.295 41.475C16.2794 43.7178 19.1303 45.0019 22.125 45.0019C25.1197 45.0019 27.9706 43.7178 29.955 41.475C37.4775 40.4175 41.625 37.95 41.625 34.5C41.625 31.5 38.5125 29.25 32.625 27.9975ZM11.6925 35.7075C8.8425 35.025 7.875 34.2075 7.875 33.9075C7.875 33.6075 8.9025 32.7375 11.925 32.04C11.6277 33.2386 11.549 34.481 11.6925 35.7075ZM13.275 36.045C12.636 32.474 14.2183 28.8708 17.28 26.925L20.625 27.75V32.625C20.625 33.5214 20.9816 34.381 21.6162 35.0141C22.2507 35.6473 23.1111 36.002 24.0075 36C25.4317 35.9986 26.6988 35.0957 27.165 33.75C28.2932 34.6648 29.8848 34.7407 31.095 33.9375C31.1581 34.6396 31.1177 35.3472 30.975 36.0375C25.1129 36.9812 19.1379 36.9837 13.275 36.045V36.045ZM25.4775 17.6175C25.8121 18.3731 26.0029 19.1845 26.04 20.01C25.7925 19.845 26.04 20.01 21.9975 17.955C23.1684 18.073 24.3511 17.9583 25.4775 17.6175V17.6175ZM19.02 17.115C19.2606 17.8851 19.8013 18.5258 20.52 18.8925L25.02 21.1425C25.3766 21.321 25.6474 21.6341 25.7726 22.0127C25.8979 22.3912 25.8672 22.8041 25.6875 23.16C25.316 23.894 24.4226 24.1918 23.685 23.8275L19.185 21.5775C16.8272 20.3979 15.5157 17.8174 15.9525 15.2175L16.02 14.79C16.8403 15.7727 17.8638 16.5659 19.02 17.115ZM16.125 21.06C17.4225 22.56 18.45 22.8975 23.0325 25.1775C23.9318 25.6377 25.0039 25.6066 25.875 25.095V32.55C25.8957 33.5855 25.073 34.4418 24.0375 34.4625C23.002 34.4832 22.1457 33.6605 22.125 32.625V27.75C22.1245 27.0607 21.6542 26.4604 20.985 26.295L17.5275 25.4325C16.7088 25.2061 16.1376 24.4668 16.125 23.6175V21.06ZM32.385 32.31L32.475 32.0625C35.6325 32.8125 36.375 33.6525 36.375 33.9C36.375 34.1475 35.4225 35.01 32.5575 35.7C32.6875 34.5707 32.6292 33.4277 32.385 32.3175V32.31ZM31.125 31.1625C31.125 32.198 30.2855 33.0375 29.25 33.0375C28.2145 33.0375 27.375 32.198 27.375 31.1625C27.375 24.4725 27.375 24.885 27.2625 24.3075C28.5197 25.0906 30.1603 24.8389 31.125 23.715V31.1625ZM29.67 23.01C29.3125 23.2406 28.8739 23.3086 28.4634 23.197C28.0529 23.0855 27.7091 22.8048 27.5175 22.425C27.015 21.3375 28.2675 20.4975 26.8725 17.0625C27.8103 16.5973 28.6604 15.973 29.385 15.2175C30.375 16.815 31.4325 21.8775 29.67 23.01V23.01ZM29.52 5.535C30.5818 7.54062 30.6702 9.92117 29.76 12C29.6815 12.1721 29.5939 12.3398 29.4975 12.5025C26.6175 14.175 22.5225 13.7325 20.3925 11.7075C19.5912 11.0493 19.1269 10.0669 19.1269 9.03C19.1269 7.99308 19.5912 7.01067 20.3925 6.3525C22.6425 4.2 26.7825 3.9225 29.52 5.535V5.535ZM16.9575 4.3875C18.2056 2.78885 20.048 1.76384 22.0644 1.54623C24.0809 1.32861 26.0995 1.93695 27.66 3.2325C24.765 2.6025 21.4575 3.2325 19.3575 5.2275C14.625 9.675 20.1 16.395 27.645 14.7675C24.6948 17.1709 20.4123 16.9842 17.6826 14.333C14.9529 11.6818 14.6412 7.40656 16.9575 4.3875V4.3875ZM13.6725 24.1125L11.91 12.345C11.7975 11.6015 12.2528 10.8896 12.975 10.68L13.9875 10.395C14.1395 11.3347 14.4355 12.2454 14.865 13.095C14.6478 13.7097 14.5116 14.3501 14.46 15C14.2841 16.0594 14.3404 17.1444 14.625 18.18V23.6175C14.6283 24.3043 14.8402 24.9738 15.2325 25.5375L14.625 25.2825C14.1202 25.0922 13.7565 24.6454 13.6725 24.1125V24.1125ZM16.8225 41.76C20.3503 42.0788 23.8997 42.0788 27.4275 41.76C24.2726 44.0782 19.9774 44.0782 16.8225 41.76ZM29.4825 40.0275C24.5952 40.6575 19.6473 40.6575 14.76 40.0275C8.1 39.135 4.125 37.065 4.125 34.5C4.125 32.1675 7.425 30.2475 13.035 29.25C12.8251 29.6185 12.6373 29.9992 12.4725 30.39C8.43 31.185 6.375 32.37 6.375 33.9075C6.375 36.1575 10.875 37.1325 13.0725 37.53C19.0693 38.49 25.1807 38.49 31.1775 37.53C33.4275 37.14 37.875 36.1575 37.875 33.9075C37.875 32.49 36.105 31.365 32.625 30.57V29.5275C37.4025 30.585 40.125 32.3775 40.125 34.5C40.125 37.065 36.15 39.135 29.4825 40.0275V40.0275Z" fill="black"/>
<path d="M24.375 6C24.375 6.41421 24.7108 6.75 25.125 6.75C25.245 6.75 28.125 6.75 28.125 9C28.125 9.41422 28.4608 9.75 28.875 9.75C29.2892 9.75 29.625 9.41422 29.625 9C29.625 6 26.685 5.25 25.125 5.25C24.7108 5.25 24.375 5.58579 24.375 6Z" fill="black"/>
<path d="M37.125 22.5C36.7108 22.5 36.375 22.8358 36.375 23.25V24H35.625C35.2108 24 34.875 24.3358 34.875 24.75C34.875 25.1642 35.2108 25.5 35.625 25.5H36.375V26.25C36.375 26.6642 36.7108 27 37.125 27C37.5392 27 37.875 26.6642 37.875 26.25V25.5H38.625C39.0392 25.5 39.375 25.1642 39.375 24.75C39.375 24.3358 39.0392 24 38.625 24H37.875V23.25C37.875 22.8358 37.5392 22.5 37.125 22.5Z" fill="black"/>
</g>
<defs>
<clipPath id="clip0">
<rect width="45" height="45" fill="white"/>
</clipPath>
</defs>
</svg>
