<svg id="Layer_1" enable-background="new 0 0 512 512" height="512" viewBox="0 0 512 512" width="512" xmlns="http://www.w3.org/2000/svg"><g><path d="m491.231 318.047-192.8-80.333c-5.59-2.329-9.23-7.791-9.23-13.846v-114.926c0-5.044 2.535-9.75 6.747-12.525 4.213-2.775 9.537-3.247 14.172-1.258l192.8 82.792c5.51 2.366 9.081 7.786 9.081 13.783v112.466c0 5.015-2.507 9.699-6.68 12.481-6.586 4.392-13.033 1.806-14.09 1.366z" fill="#f1e1d6"/><path d="m6.68 316.681c-4.173-2.782-6.68-7.465-6.68-12.481v-112.466c0-5.997 3.571-11.417 9.081-13.783l192.8-82.792c4.636-1.99 9.959-1.519 14.172 1.258 4.212 2.775 6.747 7.481 6.747 12.525v114.925c0 6.056-3.641 11.517-9.23 13.846l-192.8 80.333c-1.057.441-7.502 3.027-14.09-1.365z" fill="#f8f0eb"/><path d="m312.585 35.058-48.2-32.495c-5.068-3.417-11.701-3.417-16.77 0l-48.2 32.495c-4.136 2.788-6.615 7.45-6.615 12.438v176.372c0 8.284 6.716 15 15 15s15-6.716 15-15v-80.333c0-18.306 14.894-33.2 33.2-33.2s33.2 14.894 33.2 33.2v80.333c0 8.284 6.716 15 15 15s15-6.716 15-15v-176.373c0-4.987-2.479-9.649-6.615-12.437z" fill="#f1e1d6"/><path d="m289.2 143.533v80.333c0 8.284 6.716 15 15 15s15-6.716 15-15v-176.371c0-4.988-2.479-9.649-6.615-12.438l-48.2-32.495c-2.534-1.708-5.459-2.562-8.384-2.562v110.334c18.306 0 33.199 14.893 33.199 33.199z" fill="#e5cabb"/><path d="m368.467 265.642c-8.284 0-15-6.716-15-15v-48.2c0-8.284 6.716-15 15-15s15 6.716 15 15v48.2c0 8.284-6.716 15-15 15z" fill="#322d2f"/><path d="m143.533 265.642c-8.284 0-15-6.716-15-15v-48.2c0-8.284 6.716-15 15-15s15 6.716 15 15v48.2c0 8.284-6.715 15-15 15z" fill="#545154"/><path d="m432.734 292.425c-8.284 0-15-6.716-15-15v-48.2c0-8.284 6.716-15 15-15s15 6.716 15 15v48.2c0 8.284-6.716 15-15 15z" fill="#322d2f"/><path d="m79.267 292.425c-8.284 0-15-6.716-15-15v-48.2c0-8.284 6.716-15 15-15s15 6.716 15 15v48.2c0 8.284-6.716 15-15 15z" fill="#545154"/><path d="m482 383.467h-33.2c-4.019 0-7.865-1.613-10.68-4.467-48.655-48.623-113.328-75.396-182.12-75.396-68.813 0-133.506 26.791-182.166 75.442-2.811 2.822-6.641 4.421-10.634 4.421h-33.2c-16.569 0-30-13.431-30-30v-49.267c0-6.056 3.641-11.517 9.231-13.846l192.799-80.333c1.828-.762 3.789-1.154 5.77-1.154h96.4c1.981 0 3.942.392 5.77 1.154l192.799 80.333c5.59 2.329 9.231 7.791 9.231 13.846v49.267c0 16.569-13.431 30-30 30z" fill="#e5cabb"/><path d="m502.77 290.354-192.8-80.333c-1.828-.762-3.789-1.154-5.769-1.154h-48.2v94.737c68.792 0 133.464 26.773 182.12 75.396 2.814 2.854 6.661 4.467 10.68 4.467h33.199c16.569 0 30-13.431 30-30v-49.267s-3.641-11.517-9.23-13.846z" fill="#dab4a2"/><path d="m512 353.467h-512v143.533c0 8.284 6.716 15 15 15h482c8.284 0 15-6.716 15-15z" fill="#0ed0d3"/><path d="m512 497v-143.533h-256v158.533h241c8.284 0 15-6.715 15-15z" fill="#17b3ba"/><path d="m497 477.734h-16.066c-8.284 0-15-6.716-15-15s6.716-15 15-15h16.066c8.284 0 15 6.716 15 15s-6.716 15-15 15z" fill="#0ed0d3"/><g fill="#55e6e9"><path d="m304.2 413.467h-16.066c-8.284 0-15-6.716-15-15s6.716-15 15-15h16.066c8.284 0 15 6.716 15 15s-6.716 15-15 15z"/><path d="m223.866 477.734h-16.066c-8.284 0-15-6.716-15-15s6.716-15 15-15h16.066c8.284 0 15 6.716 15 15s-6.715 15-15 15z"/><path d="m223.866 413.467h-128.533c-8.284 0-15-6.716-15-15s6.716-15 15-15h128.533c8.284 0 15 6.716 15 15s-6.715 15-15 15z"/><path d="m416.667 477.734h-128.533c-8.284 0-15-6.716-15-15s6.716-15 15-15h128.533c8.284 0 15 6.716 15 15s-6.716 15-15 15z"/></g><path d="m497 413.467h-128.533c-8.284 0-15-6.716-15-15s6.716-15 15-15h128.533c8.284 0 15 6.716 15 15s-6.716 15-15 15z" fill="#0ed0d3"/><path d="m31.067 413.467h-16.067c-8.284 0-15-6.716-15-15s6.716-15 15-15h16.066c8.284 0 15 6.716 15 15s-6.715 15-14.999 15z" fill="#9bfcff"/><path d="m143.533 477.734h-128.533c-8.284 0-15-6.716-15-15s6.716-15 15-15h128.533c8.284 0 15 6.716 15 15s-6.715 15-15 15z" fill="#9bfcff"/><path d="m336.62 50.72-72.3-48.201c-5.037-3.358-11.604-3.358-16.641 0l-72.3 48.201c-6.894 4.595-8.756 13.908-4.16 20.801 4.597 6.893 13.91 8.755 20.801 4.16l63.98-42.653 63.979 42.653c6.891 4.595 16.204 2.732 20.801-4.16 4.596-6.893 2.734-16.206-4.16-20.801z" fill="#e5cabb"/><path d="m340.78 71.521c4.596-6.893 2.733-16.206-4.16-20.801l-72.3-48.201c-2.518-1.679-5.419-2.519-8.32-2.519v33.028l63.979 42.653c6.891 4.595 16.205 2.733 20.801-4.16z" fill="#dab4a2"/></g></svg>